<?xml version="1.0" encoding="UTF-8"?>
<svg width="208px" height="63px" viewBox="0 0 208 63" version="1.1" xmlns="http://www.w3.org/2000/svg" xmlns:xlink="http://www.w3.org/1999/xlink">
    <!-- Generator: Sketch 52.3 (67297) - http://www.bohemiancoding.com/sketch -->
    <title>sc11</title>
    <desc>Created with Sketch.</desc>
    <g id="sc11" stroke="none" stroke-width="1" fill="none" fill-rule="evenodd">
        <path d="M54.8197038,59 C55.7307613,48.7924788 53.2676059,40.4606687 45.6341245,33.4716629 C39.8257582,28.1526321 34.1654012,26.4826572 30.7591863,18.6666927 L30.3011575,19.5899962 C27.8410023,24.5407092 26.6799291,30.0413899 29.23109,35.192821 C31.0282033,38.8238122 34.4274177,42.2430458 37.3796039,44.9748197 C33.6373679,44.46901 30.135147,43.8036294 27.0719538,42.2731535 C19.8414978,38.6612305 17.9513786,30.7147992 22.9946966,24.1693806 C26.5979239,19.4926479 33.0263293,17.4764341 38.58668,16.4477536 L41.2738495,15.9499726 L39.0067065,14.4174896 C36.6015548,12.7916726 34.2654075,11.0624858 31.7902514,9.54003872 C26.9399455,6.55535993 21.6476117,8.10791477 18.3164016,12.4835703 C16.578292,14.7657356 15.6722348,17.6430302 15.2812102,20.4591057 C13.9771279,29.837661 17.150328,39.8243922 26.0228876,44.2562488 C36.6895604,49.5843119 44.262038,44.8303027 54.8197038,59 Z M31.008202,23.631456 C31.356224,24.2968366 31.7982519,24.9190629 32.2962833,25.5031527 C31.3342226,28.7106286 31.2122149,32.0586072 32.7863142,35.2379826 C34.7004349,38.9281857 37.4026053,41.399026 40.3367904,43.4523726 C36.8135682,41.183254 33.4783578,38.5307637 31.229216,34.1962554 C29.5201082,30.7418962 29.8121266,27.0868188 31.008202,23.631456 Z M40.7068137,43.68922 C40.5858061,43.6119435 40.4647985,43.5346671 40.3437908,43.4573906 L40.3377905,43.4523726 L40.3367904,43.4523726 L40.3437908,43.4573906 L40.7068137,43.68922 Z M18.8284339,27.2283251 C18.4304088,28.3533503 18.1523912,29.5165119 17.9783803,30.7067705 C17.0963246,27.4942766 17.0243201,24.1232154 17.4913495,20.7682117 C17.8273707,18.3475508 18.5934191,15.8084663 20.0895134,13.8424321 C22.1616441,11.1206941 25.0988293,9.73072096 28.138021,10.4161734 C25.6538644,10.4061375 23.3277176,11.7499455 21.6026088,14.0160533 C20.1065145,15.9820875 19.3404662,18.521172 19.004445,20.9418329 C18.7114265,23.045359 18.6304214,25.1549067 18.8284339,27.2283251 Z" id="Fill-1" fill="#FFFFFF"></path>
        <path d="M65.9907383,34.9530387 C64.6979305,34.9530387 63.4609848,34.7377993 62.2799012,34.3073204 C61.0988175,33.8768416 60.0055171,33.2154696 59,32.3232044 L60.7716254,30.2569061 C61.5856155,30.9456722 62.4075859,31.4739871 63.2375365,31.8418508 C64.0674872,32.2097145 65.009162,32.3936464 66.0625609,32.3936464 C66.9723145,32.3936464 67.6945312,32.2058011 68.2292109,31.8301105 C68.7638907,31.4544199 69.0312306,30.9534991 69.0312306,30.3273481 L69.0312306,30.2803867 C69.0312306,29.982965 68.9793587,29.7207643 68.8756148,29.4937845 C68.771871,29.2668048 68.5803439,29.0515654 68.3010336,28.8480663 C68.0177331,28.6445672 67.634679,28.4567219 67.147881,28.2845304 C66.6570929,28.1123389 66.0226594,27.9401473 65.2405905,27.7679558 C64.3428074,27.5644567 63.548768,27.3335635 62.8504922,27.0752762 C62.1562066,26.816989 61.5696549,26.5039134 61.0988175,26.1360497 C60.6279801,25.768186 60.2648767,25.31814 60.0174876,24.7859116 C59.7700984,24.2536832 59.6464039,23.6118785 59.6464039,22.8604972 L59.6464039,22.8135359 C59.6464039,22.109116 59.7900492,21.4633978 60.0733497,20.8763812 C60.3606403,20.2893646 60.7516747,19.7884438 61.2504431,19.3736188 C61.7492116,18.9587937 62.3477337,18.6339779 63.0499996,18.3991713 C63.7482754,18.1643646 64.5143837,18.0469613 65.3443344,18.0469613 C66.5732998,18.0469613 67.6785706,18.2230663 68.6601469,18.5752762 C69.6417231,18.9274862 70.5634472,19.4401473 71.425319,20.1132597 L69.8452206,22.2969613 C69.0791123,21.7490792 68.3209843,21.3303407 67.5708366,21.0407459 C66.8206889,20.751151 66.0625609,20.6063536 65.2964526,20.6063536 C64.4345808,20.6063536 63.764236,20.7941989 63.2854183,21.1698895 C62.8066006,21.5455801 62.5671918,22.0073665 62.5671918,22.5552486 L62.5671918,22.6022099 C62.5671918,22.9152855 62.6230538,23.19314 62.734778,23.4357735 C62.8465021,23.678407 63.0499996,23.8975599 63.3452705,24.093232 C63.6445316,24.2889042 64.0515266,24.4728361 64.5702458,24.6450276 C65.0929551,24.8172192 65.7513294,24.9972376 66.553349,25.1850829 C67.4311815,25.4042357 68.2132504,25.6468692 68.8915754,25.9129834 C69.5699005,26.1790976 70.1365014,26.5039134 70.5833979,26.8874309 C71.0302944,27.2709484 71.3734471,27.717081 71.6048757,28.2258287 C71.8363042,28.7345764 71.9520185,29.3255064 71.9520185,29.9986188 L71.9520185,30.0455801 C71.9520185,30.8126151 71.804383,31.5013812 71.5131023,32.1118785 C71.2178314,32.7223757 70.8108363,33.2389503 70.288127,33.6616022 C69.7694078,34.0842541 69.1389646,34.4051565 68.4087676,34.6243094 C67.6745805,34.8434622 66.8685707,34.9530387 65.9907383,34.9530387 Z M81.7797515,26.8287293 C82.900983,26.8287293 83.7867957,26.5547882 84.4331996,26.0029926 C85.0835936,25.4551105 85.4067955,24.7467772 85.4067955,23.8819061 L85.4067955,23.8349448 C85.4067955,22.8604972 85.0796034,22.1247698 84.4212291,21.6316759 C83.7668449,21.1346685 82.8850224,20.8881215 81.7797515,20.8881215 L78.3442346,20.8881215 L78.3442346,26.8287293 L81.7797515,26.8287293 Z M75.4234467,18.281768 L82.0311308,18.281768 C83.0047268,18.281768 83.8865494,18.4109116 84.6765986,18.6691989 C85.4666477,18.9274862 86.1369925,19.2992634 86.6876328,19.7845304 C87.2382732,20.2697974 87.6612288,20.8489871 87.9564997,21.5220994 C88.2517706,22.1952118 88.3994061,22.946593 88.3994061,23.7762431 L88.3994061,23.8232044 C88.3994061,24.7467772 88.2238396,25.55686 87.8727066,26.253453 C87.5175835,26.950046 87.0387658,27.5331492 86.4322634,28.0027624 C85.8217709,28.4723757 85.1115246,28.8284991 84.2975345,29.0711326 C83.4795543,29.3137661 82.6097022,29.4350829 81.6799979,29.4350829 L78.3442346,29.4350829 L78.3442346,34.718232 L75.4234467,34.718232 L75.4234467,18.281768 Z M101.56789,28.1906077 L98.6700455,21.6160221 L95.7971394,28.1906077 L101.56789,28.1906077 Z M97.3532969,18.1643646 L100.082558,18.1643646 L107.457348,34.718232 L104.344035,34.718232 L102.64523,30.75 L94.7197996,30.75 L92.9960559,34.718232 L89.9795045,34.718232 L97.3532969,18.1643646 Z M117.572371,26.429558 C118.62976,26.429558 119.471681,26.183011 120.094144,25.6860037 C120.720598,25.1929098 121.031829,24.5197974 121.031829,23.6705801 L121.031829,23.6236188 C121.031829,22.7274401 120.728578,22.0465009 120.118085,21.5847145 C119.511583,21.1190147 118.653701,20.8881215 117.54843,20.8881215 L113.250044,20.8881215 L113.250044,26.429558 L117.572371,26.429558 Z M110.330254,18.281768 L117.79981,18.281768 C118.852211,18.281768 119.785906,18.4265654 120.600893,18.7161602 C121.414883,19.0057551 122.093208,19.4088398 122.635868,19.9254144 C123.082765,20.3793738 123.425918,20.9037753 123.665326,21.4986188 C123.904735,22.0934622 124.02444,22.7509208 124.02444,23.4709945 L124.02444,23.5179558 C124.02444,24.1910681 123.924686,24.7976519 123.725179,25.3377072 C123.525671,25.8777624 123.250351,26.3552026 122.899218,26.7700276 C122.547088,27.1848527 122.12912,27.5370626 121.642322,27.8266575 C121.155524,28.1162523 120.616854,28.3393186 120.026312,28.4958564 L124.551139,34.718232 L121.079711,34.718232 L116.948911,28.9889503 L113.250044,28.9889503 L113.250044,34.718232 L110.330254,34.718232 L110.330254,18.281768 Z M134.881631,26.429558 C135.93902,26.429558 136.780941,26.183011 137.403404,25.6860037 C138.029857,25.1929098 138.341089,24.5197974 138.341089,23.6705801 L138.341089,23.6236188 C138.341089,22.7274401 138.037837,22.0465009 137.427345,21.5847145 C136.820842,21.1190147 135.962961,20.8881215 134.85769,20.8881215 L130.559304,20.8881215 L130.559304,26.429558 L134.881631,26.429558 Z M127.639513,18.281768 L135.109069,18.281768 C136.161471,18.281768 137.095165,18.4265654 137.910153,18.7161602 C138.724143,19.0057551 139.402468,19.4088398 139.945128,19.9254144 C140.392024,20.3793738 140.735177,20.9037753 140.974586,21.4986188 C141.213995,22.0934622 141.333699,22.7509208 141.333699,23.4709945 L141.333699,23.5179558 C141.333699,24.1910681 141.233945,24.7976519 141.034438,25.3377072 C140.834931,25.8777624 140.559611,26.3552026 140.208478,26.7700276 C139.857345,27.1848527 139.438379,27.5370626 138.951581,27.8266575 C138.464783,28.1162523 137.926113,28.3393186 137.335571,28.4958564 L141.860399,34.718232 L138.38897,34.718232 L134.25817,28.9889503 L130.559304,28.9889503 L130.559304,34.718232 L127.639513,34.718232 L127.639513,18.281768 Z M152.99291,32.3466851 C153.81887,32.3466851 154.576998,32.1940608 155.271284,31.8888122 C155.961579,31.5835635 156.552121,31.1687385 157.0469,30.644337 C157.537688,30.1199355 157.924732,29.5055249 158.200052,28.801105 C158.479362,28.0966851 158.619018,27.3453039 158.619018,26.5469613 L158.619018,26.5 C158.619018,25.7016575 158.479362,24.9463628 158.200052,24.234116 C157.924732,23.5218692 157.533698,22.9035451 157.034929,22.3791436 C156.532171,21.8547422 155.933648,21.4360037 155.235373,21.1229282 C154.533107,20.8098527 153.770989,20.6533149 152.945028,20.6533149 C152.119068,20.6533149 151.36094,20.8059392 150.665656,21.1111878 C149.976358,21.4164365 149.385817,21.8312615 148.891038,22.355663 C148.40025,22.8800645 148.012208,23.4944751 147.737886,24.198895 C147.458575,24.9033149 147.31892,25.6546961 147.31892,26.4530387 L147.31892,26.5 C147.31892,27.2983425 147.458575,28.0536372 147.737886,28.765884 C148.012208,29.4781308 148.403243,30.0964549 148.903009,30.6208564 C149.405767,31.1452578 150.004289,31.5639963 150.701568,31.8770718 C151.404831,32.1901473 152.166949,32.3466851 152.99291,32.3466851 Z M152.945028,35 C151.65222,35 150.471137,34.7769337 149.401777,34.3308011 C148.33142,33.8846685 147.414684,33.2780847 146.647578,32.5110497 C145.882467,31.7440147 145.282947,30.8478361 144.852012,29.8225138 C144.421076,28.7971915 144.205608,27.7053407 144.205608,26.5469613 L144.205608,26.5 C144.205608,25.3416206 144.421076,24.2497698 144.852012,23.2244475 C145.282947,22.1991252 145.890447,21.2990331 146.672516,20.5241713 C147.454585,19.7493094 148.380299,19.1348987 149.448661,18.6809392 C150.519018,18.2269797 151.700102,18 152.99291,18 C154.285718,18 155.466801,18.2230663 156.536161,18.6691989 C157.60552,19.1153315 158.523254,19.7219153 159.289362,20.4889503 C160.055471,21.2559853 160.653993,22.1521639 161.084929,23.1774862 C161.515865,24.2028085 161.731333,25.2946593 161.731333,26.4530387 L161.731333,26.5 C161.731333,27.6583794 161.515865,28.7502302 161.084929,29.7755525 C160.653993,30.8008748 160.04749,31.7009669 159.265422,32.4758287 C158.483353,33.2506906 157.557638,33.8651013 156.488279,34.3190608 C155.418919,34.7730203 154.237836,35 152.945028,35 Z M164.005717,18.281768 L167.189854,18.281768 L171.187982,30.468232 L175.305814,18.2348066 L177.795666,18.2348066 L181.913498,30.468232 L185.911626,18.281768 L189,18.281768 L183.158424,34.8356354 L180.62069,34.8356354 L176.502858,23.0248619 L172.385026,34.8356354 L169.847292,34.8356354 L164.005717,18.281768 Z" id="Fill-2" fill="#FFFFFF"></path>
        <path d="M84.4876715,48 C83.9864433,48 83.5240777,47.9102564 83.1005747,47.729783 C82.6770717,47.5493097 82.3093715,47.3027613 81.9984705,46.9901381 C81.6875695,46.6775148 81.4434325,46.3076923 81.265063,45.882643 C81.08769,45.4575937 81,45.0029586 81,44.5197239 L81,44.5 C81,44.0167653 81.0866935,43.5631164 81.2610771,43.1410256 C81.4354607,42.7189349 81.6795977,42.3491124 81.9934881,42.0295858 C82.3073786,41.7100592 82.6810577,41.4595661 83.1105395,41.2751479 C83.5400213,41.091716 84.0163376,41 84.5374954,41 C84.8493928,41 85.1343854,41.025641 85.3924731,41.0769231 C85.6495643,41.1282051 85.884733,41.2011834 86.0999722,41.2948718 C86.3152113,41.3885602 86.5135104,41.4990138 86.6958658,41.6282051 C86.8782212,41.7573964 87.0516083,41.8984221 87.2140341,42.0532544 L86.4427605,42.933925 C86.1687291,42.6824458 85.8787542,42.4792899 85.5728356,42.3244576 C85.2669169,42.1696252 84.9181498,42.0927022 84.5275306,42.0927022 C84.2016824,42.0927022 83.9007462,42.1548323 83.6237254,42.2810651 C83.3467047,42.4063116 83.1075501,42.5769231 82.9052651,42.7928994 C82.7039766,43.0088757 82.5475297,43.2623274 82.4359242,43.5522682 C82.3253152,43.8422091 82.2705089,44.1518738 82.2705089,44.4802761 L82.2705089,44.5 C82.2705089,44.8284024 82.3253152,45.1400394 82.4359242,45.4329389 C82.5475297,45.7268245 82.7039766,45.9822485 82.9052651,46.2021696 C83.1075501,46.4211045 83.3467047,46.5936884 83.6237254,46.7189349 C83.9007462,46.8451677 84.2016824,46.908284 84.5275306,46.908284 C84.9440582,46.908284 85.3017937,46.8284024 85.6017334,46.6706114 C85.9016732,46.5128205 86.197627,46.2988166 86.4915879,46.0276134 L87.2628615,46.8017751 C87.0874815,46.9881657 86.9031331,47.1548323 86.7108129,47.2988166 C86.5184928,47.443787 86.3122219,47.5700197 86.0910039,47.6765286 C85.8687894,47.7830375 85.6266453,47.8629191 85.3625788,47.918146 C85.0985122,47.9733728 84.8075408,48 84.4876715,48 Z M96.213223,46.908284 C96.5500324,46.908284 96.8589405,46.8451677 97.1429366,46.7189349 C97.4239433,46.5936884 97.6650908,46.4220907 97.8673758,46.2071006 C98.0676678,45.9901381 98.2251112,45.7376726 98.3377132,45.4477318 C98.4523081,45.1577909 98.5091073,44.8481262 98.5091073,44.5197239 L98.5091073,44.5 C98.5091073,44.1715976 98.4523081,43.8599606 98.3377132,43.5670611 C98.2251112,43.2731755 98.0656748,43.0187377 97.8623934,42.8027613 C97.657119,42.586785 97.412982,42.4142012 97.1279894,42.2859961 C96.8410039,42.1568047 96.5301029,42.0927022 96.1932935,42.0927022 C95.8564841,42.0927022 95.5465795,42.1548323 95.2635799,42.2810651 C94.9815768,42.4063116 94.7404292,42.5769231 94.5391407,42.7928994 C94.3388487,43.0088757 94.1804088,43.2623274 94.0678068,43.5522682 C93.9542084,43.8422091 93.8974092,44.1518738 93.8974092,44.4802761 L93.8974092,44.5 C93.8974092,44.8284024 93.9542084,45.1400394 94.0678068,45.4329389 C94.1804088,45.7268245 94.3398452,45.9812623 94.5441231,46.1972387 C94.748401,46.413215 94.9935345,46.5857988 95.2785271,46.7140039 C95.5645161,46.8431953 95.8754171,46.908284 96.213223,46.908284 Z M96.1932935,48 C95.6651604,48 95.1838617,47.908284 94.7474045,47.7248521 C94.3109473,47.5414201 93.9362718,47.290927 93.6233778,46.9753452 C93.3104839,46.6597633 93.0663469,46.290927 92.8909668,45.8678501 C92.7145903,45.4457594 92.6269003,44.9960552 92.6269003,44.5197239 L92.6269003,44.5 C92.6269003,44.0226824 92.7145903,43.5729783 92.8909668,43.1508876 C93.0663469,42.7287968 93.3144698,42.3579882 93.6333426,42.0394477 C93.9522154,41.7199211 94.3308769,41.4664694 94.7663376,41.2800789 C95.2027948,41.0927022 95.6850899,41 96.213223,41 C96.7403597,41 97.2226548,41.091716 97.659112,41.2751479 C98.0955692,41.4595661 98.4692482,41.709073 98.7821422,42.0246548 C99.0950362,42.3402367 99.3391732,42.709073 99.5155497,43.1321499 C99.6909297,43.5542406 99.7786198,44.0039448 99.7786198,44.4802761 L99.7786198,44.5 C99.7786198,44.9773176 99.6909297,45.4270217 99.5155497,45.8491124 C99.3391732,46.2712032 99.0920467,46.6420118 98.7721774,46.9605523 C98.4533046,47.2800789 98.0756396,47.5325444 97.6391824,47.7199211 C97.2027253,47.9072978 96.7204301,48 96.1932935,48 Z M109.794216,45.1962525 L108.611397,42.4891519 L107.439539,45.1962525 L109.794216,45.1962525 Z M108.074296,41.0670611 L109.187361,41.0670611 L112.19772,47.8846154 L110.927211,47.8846154 L110.233662,46.2504931 L106.999096,46.2504931 L106.295583,47.8846154 L105.064933,47.8846154 L108.074296,41.0670611 Z M120.970708,48 C120.46948,48 120.007114,47.9102564 119.583611,47.729783 C119.160108,47.5493097 118.792408,47.3027613 118.481507,46.9901381 C118.170606,46.6775148 117.925473,46.3076923 117.7481,45.882643 C117.570727,45.4575937 117.483037,45.0029586 117.483037,44.5197239 L117.483037,44.5 C117.483037,44.0167653 117.568734,43.5631164 117.743117,43.1410256 C117.917501,42.7189349 118.161638,42.3491124 118.476525,42.0295858 C118.790415,41.7100592 119.163098,41.4595661 119.593576,41.2751479 C120.023058,41.091716 120.498378,41 121.019536,41 C121.33243,41 121.617422,41.025641 121.874513,41.0769231 C122.131605,41.1282051 122.36777,41.2011834 122.583009,41.2948718 C122.798248,41.3885602 122.996547,41.4990138 123.178902,41.6282051 C123.361258,41.7573964 123.533648,41.8984221 123.697071,42.0532544 L122.924801,42.933925 C122.651766,42.6824458 122.361791,42.4792899 122.054876,42.3244576 C121.748957,42.1696252 121.401187,42.0927022 121.009571,42.0927022 C120.683723,42.0927022 120.382786,42.1548323 120.106762,42.2810651 C119.829741,42.4063116 119.58959,42.5769231 119.388302,42.7928994 C119.186017,43.0088757 119.02957,43.2623274 118.918961,43.5522682 C118.808352,43.8422091 118.752549,44.1518738 118.752549,44.4802761 L118.752549,44.5 C118.752549,44.8284024 118.808352,45.1400394 118.918961,45.4329389 C119.02957,45.7268245 119.186017,45.9822485 119.388302,46.2021696 C119.58959,46.4211045 119.829741,46.5936884 120.106762,46.7189349 C120.382786,46.8451677 120.683723,46.908284 121.009571,46.908284 C121.427095,46.908284 121.78483,46.8284024 122.08477,46.6706114 C122.38471,46.5128205 122.680664,46.2988166 122.973628,46.0276134 L123.745898,46.8017751 C123.569522,46.9881657 123.38617,47.1548323 123.19385,47.2988166 C123.001529,47.443787 122.795259,47.5700197 122.573044,47.6765286 C122.351826,47.7830375 122.109682,47.8629191 121.845615,47.918146 C121.581549,47.9733728 121.290577,48 120.970708,48 Z M129.412866,41.1153846 L130.604653,41.1153846 L130.604653,43.9289941 L133.88705,43.9289941 L133.88705,41.1153846 L135.079834,41.1153846 L135.079834,47.8846154 L133.88705,47.8846154 L133.88705,45.0315582 L130.604653,45.0315582 L130.604653,47.8846154 L129.412866,47.8846154 L129.412866,41.1153846 Z M141.322766,47.8836292 L142.514553,47.8836292 L142.514553,41.1153846 L141.322766,41.1153846 L141.322766,47.8836292 Z M148.768446,41.1153846 L149.880515,41.1153846 L153.535595,45.795858 L153.535595,41.1153846 L154.727382,41.1153846 L154.727382,47.8846154 L153.722933,47.8846154 L149.960234,43.0690335 L149.960234,47.8846154 L148.768446,47.8846154 L148.768446,41.1153846 Z M164.147085,48 C163.612973,48 163.127688,47.9112426 162.691231,47.734714 C162.254774,47.5571992 161.882091,47.3116371 161.572187,46.9990138 C161.262282,46.6873767 161.023128,46.3195266 160.853726,45.8974359 C160.684325,45.4753452 160.599625,45.0157791 160.599625,44.5197239 L160.599625,44.5 C160.599625,44.0295858 160.686318,43.581854 160.860702,43.1558185 C161.035085,42.7307692 161.279222,42.3579882 161.593113,42.0394477 C161.908,41.7199211 162.281679,41.4664694 162.715146,41.2800789 C163.148614,41.0927022 163.621941,41 164.13712,41 C164.436063,41 164.708102,41.0207101 164.952239,41.0621302 C165.197372,41.1045365 165.423572,41.1637081 165.631836,41.2416174 C165.8401,41.3185404 166.037403,41.4142012 166.222747,41.5266272 C166.408092,41.6390533 166.589451,41.770217 166.764831,41.918146 L166.002526,42.8175542 C165.872984,42.7080868 165.739456,42.6084813 165.601942,42.5177515 C165.465425,42.4270217 165.321932,42.352071 165.17246,42.290927 C165.022989,42.2287968 164.85857,42.1804734 164.679204,42.1449704 C164.499838,42.1104536 164.302535,42.0927022 164.088293,42.0927022 C163.775399,42.0927022 163.483431,42.1568047 163.213385,42.2859961 C162.94334,42.4142012 162.708171,42.5887574 162.509872,42.8047337 C162.311573,43.0207101 162.155126,43.2731755 162.041528,43.5650888 C161.926933,43.8550296 161.870133,44.1627219 161.870133,44.4852071 L161.870133,44.504931 C161.870133,44.8530572 161.92494,45.1765286 162.036545,45.4733728 C162.147154,45.7712032 162.303601,46.025641 162.508876,46.2386588 C162.71415,46.4516765 162.956294,46.6203156 163.239294,46.7435897 C163.52329,46.8658777 163.839173,46.9270217 164.19093,46.9270217 C164.514785,46.9270217 164.818711,46.8806706 165.100714,46.7869822 C165.383713,46.6913215 165.628847,46.5680473 165.837111,46.4112426 L165.837111,45.1380671 L164.088293,45.1380671 L164.088293,44.1035503 L167,44.1035503 L167,46.9467456 C166.830599,47.0877712 166.643261,47.2238659 166.437987,47.3530572 C166.232712,47.4812623 166.010498,47.5936884 165.773336,47.6913215 C165.535178,47.7879684 165.28008,47.8629191 165.006048,47.918146 C164.733014,47.9733728 164.446028,48 164.147085,48 Z" id="Fill-3" fill="#FFFFFF"></path>
    </g>
</svg>